<mxfile host="Electron" agent="Mozilla/5.0 (Windows NT 10.0; Win64; x64) AppleWebKit/537.36 (KHTML, like Gecko) draw.io/25.0.2 Chrome/128.0.6613.186 Electron/32.2.5 Safari/537.36" version="25.0.2">
  <diagram name="Page-1" id="QbVM-qhq_BF2LXNoguQ5">
    <mxGraphModel dx="1182" dy="683" grid="1" gridSize="10" guides="1" tooltips="1" connect="1" arrows="1" fold="1" page="1" pageScale="1" pageWidth="850" pageHeight="1100" math="0" shadow="0">
      <root>
        <mxCell id="0" />
        <mxCell id="1" parent="0" />
        <mxCell id="mEob46jThGOG9od_VYb--154" value="" style="rounded=1;whiteSpace=wrap;html=1;fillColor=#CFCFCF;fontFamily=CMU Sans Serif;" vertex="1" parent="1">
          <mxGeometry x="89" y="250" width="120" height="120" as="geometry" />
        </mxCell>
        <mxCell id="mEob46jThGOG9od_VYb--155" value="&lt;font style=&quot;font-size: 50px;&quot;&gt;&lt;b style=&quot;font-size: 50px;&quot;&gt;M&lt;/b&gt;&lt;/font&gt;" style="text;strokeColor=none;align=center;fillColor=none;html=1;verticalAlign=middle;whiteSpace=wrap;rounded=0;strokeWidth=2;fontSize=50;fontColor=#595656;fontFamily=CMU Sans Serif;" vertex="1" parent="1">
          <mxGeometry x="116.5" y="255" width="65" height="60" as="geometry" />
        </mxCell>
        <mxCell id="mEob46jThGOG9od_VYb--156" value="&lt;b style=&quot;font-size: 15px;&quot;&gt;Learner&lt;/b&gt;&lt;b style=&quot;background-color: initial;&quot;&gt;&amp;nbsp;1&lt;/b&gt;" style="text;html=1;align=center;verticalAlign=middle;resizable=0;points=[];autosize=1;strokeColor=none;fillColor=none;fontSize=15;fontFamily=CMU Sans Serif;" vertex="1" parent="1">
          <mxGeometry x="58" y="529.4" width="90" height="30" as="geometry" />
        </mxCell>
        <mxCell id="mEob46jThGOG9od_VYb--157" value="&lt;span style=&quot;font-size: 25px;&quot;&gt;&lt;b style=&quot;font-size: 25px;&quot;&gt;...&lt;/b&gt;&lt;/span&gt;" style="text;html=1;align=center;verticalAlign=middle;resizable=0;points=[];autosize=1;strokeColor=none;fillColor=none;fontSize=25;rotation=90;fontFamily=CMU Sans Serif;" vertex="1" parent="1">
          <mxGeometry x="130" y="419" width="50" height="40" as="geometry" />
        </mxCell>
        <mxCell id="mEob46jThGOG9od_VYb--158" value="&lt;b style=&quot;font-size: 15px;&quot;&gt;Aggregator&lt;/b&gt;" style="text;html=1;align=center;verticalAlign=middle;resizable=0;points=[];autosize=1;strokeColor=none;fillColor=none;fontSize=15;fontFamily=CMU Sans Serif;" vertex="1" parent="1">
          <mxGeometry x="99" y="220" width="100" height="30" as="geometry" />
        </mxCell>
        <mxCell id="mEob46jThGOG9od_VYb--160" value="&lt;b style=&quot;font-size: 15px;&quot;&gt;Learner&lt;/b&gt;&lt;b style=&quot;background-color: initial;&quot;&gt;&amp;nbsp;N&lt;/b&gt;" style="text;html=1;align=center;verticalAlign=middle;resizable=0;points=[];autosize=1;strokeColor=none;fillColor=none;fontSize=15;fontFamily=CMU Sans Serif;" vertex="1" parent="1">
          <mxGeometry x="155" y="529.4" width="90" height="30" as="geometry" />
        </mxCell>
        <mxCell id="mEob46jThGOG9od_VYb--161" value="D" style="group;fontStyle=4;fontFamily=CMU Sans Serif;" vertex="1" connectable="0" parent="1">
          <mxGeometry x="65" y="399.7" width="76" height="129.7" as="geometry" />
        </mxCell>
        <mxCell id="mEob46jThGOG9od_VYb--162" value="&lt;font style=&quot;font-size: 50px;&quot;&gt;&lt;b style=&quot;&quot;&gt;&lt;font color=&quot;#4d4d4d&quot;&gt;M&lt;/font&gt;&lt;br&gt;&lt;font color=&quot;#ff3333&quot;&gt;D&lt;/font&gt;&lt;/b&gt;&lt;/font&gt;" style="rounded=1;whiteSpace=wrap;html=1;fillColor=#CFCFCF;align=center;fontFamily=CMU Sans Serif;" vertex="1" parent="mEob46jThGOG9od_VYb--161">
          <mxGeometry width="72.96000000000001" height="129.7" as="geometry" />
        </mxCell>
        <mxCell id="mEob46jThGOG9od_VYb--163" value="D" style="group;fontStyle=4;fontFamily=CMU Sans Serif;" vertex="1" connectable="0" parent="1">
          <mxGeometry x="162" y="399.7" width="76" height="129.7" as="geometry" />
        </mxCell>
        <mxCell id="mEob46jThGOG9od_VYb--164" value="&lt;font style=&quot;font-size: 50px;&quot;&gt;&lt;b style=&quot;&quot;&gt;&lt;font color=&quot;#4d4d4d&quot;&gt;M&lt;/font&gt;&lt;br&gt;&lt;/b&gt;&lt;/font&gt;&lt;b style=&quot;color: rgb(0, 102, 204); font-size: 50px;&quot;&gt;D&lt;/b&gt;&lt;font style=&quot;font-size: 50px;&quot;&gt;&lt;b style=&quot;&quot;&gt;&lt;br&gt;&lt;/b&gt;&lt;/font&gt;" style="rounded=1;whiteSpace=wrap;html=1;fillColor=#CFCFCF;align=center;fontFamily=CMU Sans Serif;" vertex="1" parent="mEob46jThGOG9od_VYb--163">
          <mxGeometry width="72.96000000000001" height="129.7" as="geometry" />
        </mxCell>
      </root>
    </mxGraphModel>
  </diagram>
</mxfile>
